<?xml version="1.0" encoding="UTF-8" standalone="no"?>
<!-- Created with Inkscape (http://www.inkscape.org/) -->

<svg
   width="194.73801mm"
   height="194.73796mm"
   viewBox="0 0 194.73801 194.73796"
   version="1.1"
   id="svg1"
   inkscape:version="1.3.1 (9b9bdc1480, 2023-11-25, custom)"
   sodipodi:docname="Oniric Glow"
   inkscape:dataloss="true"
   xmlns:inkscape="http://www.inkscape.org/namespaces/inkscape"
   xmlns:sodipodi="http://sodipodi.sourceforge.net/DTD/sodipodi-0.dtd"
   xmlns:xlink="http://www.w3.org/1999/xlink"
   xmlns="http://www.w3.org/2000/svg"
   xmlns:svg="http://www.w3.org/2000/svg">
  <sodipodi:namedview
     id="namedview1"
     pagecolor="#505050"
     bordercolor="#ffffff"
     borderopacity="1"
     inkscape:showpageshadow="0"
     inkscape:pageopacity="0"
     inkscape:pagecheckerboard="1"
     inkscape:deskcolor="#505050"
     inkscape:document-units="mm"
     showguides="true"
     inkscape:lockguides="true"
     showgrid="true"
     inkscape:zoom="0.67294903"
     inkscape:cx="479.97691"
     inkscape:cy="606.28663"
     inkscape:window-width="1920"
     inkscape:window-height="1011"
     inkscape:window-x="0"
     inkscape:window-y="32"
     inkscape:window-maximized="1"
     inkscape:current-layer="layer1">
    <inkscape:grid
       id="grid54"
       units="mm"
       originx="-7.6310004"
       originy="-51.131018"
       spacingx="0.99999998"
       spacingy="1"
       empcolor="#0099e5"
       empopacity="0.30196078"
       color="#0099e5"
       opacity="0.14901961"
       empspacing="5"
       dotted="false"
       gridanglex="30"
       gridanglez="30"
       visible="true" />
  </sodipodi:namedview>
  <defs
     id="defs1">
    <linearGradient
       id="linearGradient1077"
       inkscape:collect="always">
      <stop
         style="stop-color:#ffe680;stop-opacity:0;"
         offset="0.89221734"
         id="stop1079" />
      <stop
         style="stop-color:#ffe680;stop-opacity:1;"
         offset="0.93474525"
         id="stop1077" />
      <stop
         style="stop-color:#ffe680;stop-opacity:0;"
         offset="1"
         id="stop1078" />
    </linearGradient>
    <linearGradient
       id="linearGradient910"
       inkscape:collect="always">
      <stop
         style="stop-color:#ffffff;stop-opacity:0;"
         offset="0"
         id="stop1080" />
      <stop
         style="stop-color:#ffffff;stop-opacity:0.80138689;"
         offset="0.45830944"
         id="stop911" />
      <stop
         style="stop-color:#ffffff;stop-opacity:0.14382482;"
         offset="1"
         id="stop912" />
    </linearGradient>
    <linearGradient
       id="linearGradient903"
       inkscape:collect="always">
      <stop
         style="stop-color:#ffffff;stop-opacity:1;"
         offset="0"
         id="stop903" />
      <stop
         style="stop-color:#ffd652;stop-opacity:1;"
         offset="0.74961323"
         id="stop904" />
    </linearGradient>
    <linearGradient
       id="swatch4"
       inkscape:swatch="solid">
      <stop
         style="stop-color:#d1cc94;stop-opacity:0.05;"
         offset="0"
         id="stop4" />
    </linearGradient>
    <radialGradient
       inkscape:collect="always"
       xlink:href="#linearGradient903"
       id="radialGradient904"
       cx="105"
       cy="148.5"
       fx="105"
       fy="148.5"
       r="91.749893"
       gradientTransform="matrix(1,0,0,1.0000029,0,-4.2324612e-4)"
       gradientUnits="userSpaceOnUse" />
    <radialGradient
       inkscape:collect="always"
       xlink:href="#linearGradient910"
       id="radialGradient912"
       cx="105"
       cy="148.5"
       fx="105"
       fy="148.5"
       r="91.749893"
       gradientTransform="matrix(1,0,0,1.0000029,0,-4.2324612e-4)"
       gradientUnits="userSpaceOnUse" />
    <radialGradient
       inkscape:collect="always"
       xlink:href="#linearGradient1077"
       id="radialGradient1078"
       cx="105"
       cy="148.5"
       fx="105"
       fy="148.5"
       r="97.369003"
       gradientTransform="translate(0,3.0501738e-5)"
       gradientUnits="userSpaceOnUse" />
  </defs>
  <g
     inkscape:label="Layer 1"
     inkscape:groupmode="layer"
     id="layer1"
     transform="translate(-7.631,-51.13102)">
    <g
       id="g1079">
      <path
         id="path887"
         style="fill:url(#radialGradient912);fill-opacity:1;stroke:url(#radialGradient904);stroke-width:2;stroke-dasharray:none;stroke-opacity:1"
         inkscape:transform-center-x="17.882375"
         inkscape:transform-center-y="-43.171882"
         d="M 90.346392,58.796932 A 91.000054,91.000057 0 0 0 51.659348,75.046586 46.728942,46.72894 67.5 0 0 43.945607,123.21058 46.728942,46.72894 67.5 0 0 104.99976,148.49999 46.728942,46.72894 67.5 0 0 130.28969,87.445829 46.728942,46.72894 67.5 0 0 90.346392,58.796932 Z M 68.624204,68.847998 a 46.728942,46.72894 45 0 0 -11.548132,2.401921 91.000054,91.000057 0 0 0 -29.326892,29.327411 46.728942,46.72894 45 0 0 11.166243,47.92266 46.728942,46.72894 45 0 0 66.084337,0 46.728942,46.72894 45 0 0 0,-66.084345 A 46.728942,46.72894 45 0 0 68.624204,68.847998 Z M 60.160121,83.918396 A 46.728942,46.72894 22.5 0 0 31.546881,95.159053 91.000054,91.000057 0 0 0 15.29671,133.8461 46.728942,46.72894 22.5 0 0 43.945607,173.7894 46.728942,46.72894 22.5 0 0 104.99976,148.49999 46.728942,46.72894 22.5 0 0 79.710349,87.445829 46.728942,46.72894 22.5 0 0 60.160121,83.918396 Z m 0,0 A 46.728942,46.72894 22.5 0 0 31.546881,95.159053 91.000054,91.000057 0 0 0 15.29671,133.8461 46.728942,46.72894 22.5 0 0 43.945607,173.7894 46.728942,46.72894 22.5 0 0 104.99976,148.49999 46.728942,46.72894 22.5 0 0 79.710349,87.445829 46.728942,46.72894 22.5 0 0 60.160121,83.918396 Z m -1.888773,17.852664 a 46.728942,46.72894 0 0 0 -41.563872,25.5912 91.000054,91.000057 0 0 0 -2.707328,21.13773 91.000054,91.000057 0 0 0 2.707328,21.13824 46.728942,46.72894 0 0 0 41.563872,25.59069 46.728942,46.72894 0 0 0 46.728412,-46.72893 46.728942,46.72894 0 0 0 -46.728412,-46.72893 z m 5.224487,17.91208 a 46.72894,46.728942 67.5 0 0 -19.550228,3.52744 46.72894,46.728942 67.5 0 0 -28.648897,39.9433 91.000054,91.000057 0 0 0 16.492016,39.01002 46.72894,46.728942 67.5 0 0 47.921623,7.39024 46.72894,46.728942 67.5 0 0 25.289931,-61.05415 46.72894,46.728942 67.5 0 0 -41.504445,-28.81685 z m 5.128369,15.2492 a 46.72894,46.728942 45 0 0 -29.708781,13.56765 46.72894,46.728942 45 0 0 -11.166243,47.92214 91.000054,91.000057 0 0 0 29.671057,29.51551 46.72894,46.728942 45 0 0 47.579523,-11.3528 46.72894,46.728942 45 0 0 5.2e-4,-66.08485 46.72894,46.728942 45 0 0 -36.376076,-13.56765 z m 16.825846,10.04022 a 46.72894,46.728942 22.5 0 0 -41.504443,28.81684 46.72894,46.728942 22.5 0 0 7.713224,48.16347 91.000054,91.000057 0 0 0 38.935608,16.30443 46.72894,46.728942 22.5 0 0 39.695251,-28.70316 46.72894,46.728942 22.5 0 0 -25.28941,-61.05415 46.72894,46.728942 22.5 0 0 -19.55023,-3.52743 z m 19.55023,3.52743 a 46.72894,46.728942 0 0 0 -46.729449,46.72893 46.72894,46.728942 0 0 0 25.591719,41.56387 91.000054,91.000057 0 0 0 21.13721,2.70733 91.000054,91.000057 0 0 0 21.47104,-2.77968 46.72894,46.728942 0 0 0 25.25789,-41.49152 46.72894,46.728942 0 0 0 -46.72841,-46.72893 z m 19.55023,-3.52743 a 46.728942,46.72894 67.5 0 0 -19.55023,3.52743 46.728942,46.72894 67.5 0 0 -25.289931,61.05415 46.728942,46.72894 67.5 0 0 39.694731,28.70316 91.000054,91.000057 0 0 0 38.9351,-16.30443 46.728942,46.72894 67.5 0 0 7.71425,-48.16347 46.728942,46.72894 67.5 0 0 -41.50392,-28.81684 z m 10.15803,-10.04022 a 46.728942,46.72894 45 0 0 -29.70826,13.56765 46.728942,46.72894 45 0 0 -5.2e-4,66.08485 46.728942,46.72894 45 0 0 47.57901,11.35332 91.000054,91.000057 0 0 0 29.67209,-29.51655 46.728942,46.72894 45 0 0 -11.16624,-47.92162 46.728942,46.72894 45 0 0 -36.37608,-13.56765 z m 11.79567,-15.2492 a 46.728942,46.72894 22.5 0 0 -41.50393,28.81685 46.728942,46.72894 22.5 0 0 25.28889,61.05415 46.728942,46.72894 22.5 0 0 47.92163,-7.38973 91.000054,91.000057 0 0 0 16.49253,-39.0095 46.728942,46.72894 22.5 0 0 -28.64941,-39.94433 46.728942,46.72894 22.5 0 0 -19.54971,-3.52744 z m 5.22448,-17.91208 a 46.728942,46.72894 0 0 0 -46.72893,46.72893 46.728942,46.72894 0 0 0 46.72893,46.72893 46.728942,46.72894 0 0 0 41.49153,-25.25737 91.000054,91.000057 0 0 0 2.77967,-21.47156 91.000054,91.000057 0 0 0 -2.36936,-20.51968 46.728942,46.72894 0 0 0 -41.90184,-26.20925 z M 149.8394,83.918396 a 46.72894,46.728942 67.5 0 0 -19.55023,3.527433 46.72894,46.728942 67.5 0 0 -25.28941,61.054161 46.72894,46.728942 67.5 0 0 61.05416,25.28941 46.72894,46.728942 67.5 0 0 28.72589,-39.99911 A 91.000054,91.000057 0 0 0 179.03142,95.625175 46.72894,46.728942 67.5 0 0 149.8394,83.918396 Z M 134.70854,68.847998 a 46.72894,46.728942 45 0 0 -29.70878,13.567647 46.72894,46.728942 45 0 0 0,66.084345 46.72894,46.728942 45 0 0 66.08486,0 46.72894,46.728942 45 0 0 11.23135,-47.94746 91.000054,91.000057 0 0 0 -29.15481,-29.232848 46.72894,46.728942 45 0 0 -18.45262,-2.471684 z M 119.95957,58.763859 A 46.72894,46.728942 22.5 0 0 79.710349,87.445829 46.72894,46.728942 22.5 0 0 104.99976,148.49999 46.72894,46.728942 22.5 0 0 166.05443,123.21058 46.72894,46.728942 22.5 0 0 158.08231,74.614571 91.000054,91.000057 0 0 0 119.95957,58.763859 Z M 104.99976,57.499853 A 91.000054,91.000057 0 0 0 83.862034,60.207698 46.72894,46.728942 0 0 0 58.270831,101.77106 46.72894,46.728942 0 0 0 104.99976,148.49999 46.72894,46.728942 0 0 0 151.72869,101.77106 46.72894,46.728942 0 0 0 125.768,59.925545 91.000054,91.000057 0 0 0 104.99976,57.499853 Z" />
      <path
         id="path887-3"
         style="fill:none;stroke:#ffffff;stroke-width:0.5;stroke-dasharray:none;stroke-opacity:1"
         inkscape:transform-center-x="0.00026"
         inkscape:transform-center-y="-1.5e-06"
         d="M 90.346376,58.796941 A 91.000054,91.000057 0 0 0 51.659336,75.046595 46.728942,46.72894 67.5 0 0 43.945596,123.21059 46.728942,46.72894 67.5 0 0 104.99975,148.5 46.728942,46.72894 67.5 0 0 130.28968,87.445838 46.728942,46.72894 67.5 0 0 90.346376,58.796941 Z m -21.72219,10.051066 a 46.728942,46.72894 45 0 0 -11.54813,2.401921 91.000054,91.000057 0 0 0 -29.32689,29.327412 46.728942,46.72894 45 0 0 11.16624,47.92266 46.728942,46.72894 45 0 0 66.084344,0 46.728942,46.72894 45 0 0 0,-66.084346 46.728942,46.72894 45 0 0 -36.375564,-13.567647 z m -8.46408,15.070398 a 46.728942,46.72894 22.5 0 0 -28.61324,11.240653 91.000054,91.000057 0 0 0 -16.25017,38.687052 46.728942,46.72894 22.5 0 0 28.6489,39.9433 A 46.728942,46.72894 22.5 0 0 104.99975,148.5 46.728942,46.72894 22.5 0 0 79.710336,87.445838 46.728942,46.72894 22.5 0 0 60.160106,83.918405 Z m 0,0 a 46.728942,46.72894 22.5 0 0 -28.61324,11.240653 91.000054,91.000057 0 0 0 -16.25017,38.687052 46.728942,46.72894 22.5 0 0 28.6489,39.9433 A 46.728942,46.72894 22.5 0 0 104.99975,148.5 46.728942,46.72894 22.5 0 0 79.710336,87.445838 46.728942,46.72894 22.5 0 0 60.160106,83.918405 Z m -1.88877,17.852665 a 46.728942,46.72894 0 0 0 -41.56387,25.5912 91.000054,91.000057 0 0 0 -2.70733,21.13773 91.000054,91.000057 0 0 0 2.70733,21.13824 46.728942,46.72894 0 0 0 41.56387,25.59069 A 46.728942,46.72894 0 0 0 104.99975,148.5 46.728942,46.72894 0 0 0 58.271336,101.77107 Z m 5.22448,17.91208 a 46.72894,46.728942 67.5 0 0 -19.55022,3.52744 46.72894,46.728942 67.5 0 0 -28.6489,39.9433 91.000054,91.000057 0 0 0 16.49202,39.01002 46.72894,46.728942 67.5 0 0 47.92162,7.39024 A 46.72894,46.728942 67.5 0 0 105.00027,148.5 46.72894,46.728942 67.5 0 0 63.495816,119.68315 Z m 5.12837,15.2492 A 46.72894,46.728942 45 0 0 38.915406,148.5 a 46.72894,46.728942 45 0 0 -11.16624,47.92214 91.000054,91.000057 0 0 0 29.67106,29.51551 46.72894,46.728942 45 0 0 47.579524,-11.3528 46.72894,46.728942 45 0 0 5.2e-4,-66.08485 46.72894,46.728942 45 0 0 -36.376084,-13.56765 z m 16.82585,10.04022 a 46.72894,46.728942 22.5 0 0 -41.50444,28.81684 46.72894,46.728942 22.5 0 0 7.71322,48.16347 91.000054,91.000057 0 0 0 38.93561,16.30443 A 46.72894,46.728942 22.5 0 0 130.28968,209.55415 46.72894,46.728942 22.5 0 0 105.00027,148.5 46.72894,46.728942 22.5 0 0 85.450036,144.97257 Z M 105.00027,148.5 a 46.72894,46.728942 0 0 0 -46.729454,46.72893 46.72894,46.728942 0 0 0 25.59172,41.56387 91.000054,91.000057 0 0 0 21.137214,2.70733 91.000054,91.000057 0 0 0 21.47104,-2.77968 46.72894,46.728942 0 0 0 25.25789,-41.49152 A 46.72894,46.728942 0 0 0 105.00027,148.5 Z m 19.55023,-3.52743 a 46.728942,46.72894 67.5 0 0 -19.55023,3.52743 46.728942,46.72894 67.5 0 0 -25.289934,61.05415 46.728942,46.72894 67.5 0 0 39.694734,28.70316 91.000054,91.000057 0 0 0 38.9351,-16.30443 46.728942,46.72894 67.5 0 0 7.71425,-48.16347 46.728942,46.72894 67.5 0 0 -41.50392,-28.81684 z m 10.15803,-10.04022 A 46.728942,46.72894 45 0 0 105.00027,148.5 a 46.728942,46.72894 45 0 0 -5.2e-4,66.08485 46.728942,46.72894 45 0 0 47.57901,11.35332 91.000054,91.000057 0 0 0 29.67209,-29.51655 A 46.728942,46.72894 45 0 0 171.08461,148.5 46.728942,46.72894 45 0 0 134.70853,134.93235 Z m 11.79567,-15.2492 A 46.728942,46.72894 22.5 0 0 105.00027,148.5 a 46.728942,46.72894 22.5 0 0 25.28889,61.05415 46.728942,46.72894 22.5 0 0 47.92163,-7.38973 91.000054,91.000057 0 0 0 16.49253,-39.0095 46.728942,46.72894 22.5 0 0 -28.64941,-39.94433 46.728942,46.72894 22.5 0 0 -19.54971,-3.52744 z m 5.22448,-17.91208 A 46.728942,46.72894 0 0 0 104.99975,148.5 46.728942,46.72894 0 0 0 151.72868,195.22893 46.728942,46.72894 0 0 0 193.22021,169.97156 91.000054,91.000057 0 0 0 195.99988,148.5 91.000054,91.000057 0 0 0 193.63052,127.98032 46.728942,46.72894 0 0 0 151.72868,101.77107 Z M 149.83939,83.918405 A 46.72894,46.728942 67.5 0 0 130.28916,87.445838 46.72894,46.728942 67.5 0 0 104.99975,148.5 46.72894,46.728942 67.5 0 0 166.05391,173.78941 46.72894,46.728942 67.5 0 0 194.7798,133.7903 91.000054,91.000057 0 0 0 179.03141,95.625188 46.72894,46.728942 67.5 0 0 149.83939,83.918405 Z M 134.70853,68.848007 a 46.72894,46.728942 45 0 0 -29.70878,13.567647 46.72894,46.728942 45 0 0 0,66.084346 46.72894,46.728942 45 0 0 66.08486,0 46.72894,46.728942 45 0 0 11.23135,-47.94746 91.000054,91.000057 0 0 0 -29.15481,-29.232849 46.72894,46.728942 45 0 0 -18.45262,-2.471684 z M 119.95956,58.763868 A 46.72894,46.728942 22.5 0 0 79.710336,87.445838 46.72894,46.728942 22.5 0 0 104.99975,148.5 46.72894,46.728942 22.5 0 0 166.05442,123.21059 46.72894,46.728942 22.5 0 0 158.0823,74.61458 91.000054,91.000057 0 0 0 119.95956,58.763868 Z M 104.99975,57.499862 A 91.000054,91.000057 0 0 0 83.862016,60.207707 46.72894,46.728942 0 0 0 58.270816,101.77107 46.72894,46.728942 0 0 0 104.99975,148.5 46.72894,46.728942 0 0 0 151.72868,101.77107 46.72894,46.728942 0 0 0 125.76799,59.925554 91.000054,91.000057 0 0 0 104.99975,57.499862 Z" />
      <path
         d="M 104.99964,57.50002 A 91.000054,91.000057 0 0 0 14,148.50012 91.000054,91.000057 0 0 0 104.99964,239.49998 91.000054,91.000057 0 0 0 196,148.50012 91.000054,91.000057 0 0 0 104.99964,57.50002 Z"
         style="fill:none;fill-opacity:1;stroke:url(#radialGradient1078);stroke-width:12.738;stroke-dasharray:none;stroke-opacity:1"
         id="path570"
         inkscape:transform-center-x="-0.00032026037"
         inkscape:transform-center-y="-1.9026413e-05" />
    </g>
  </g>
</svg>
